<svg enable-background="new 0 0 52 58" height="512" viewBox="0 0 52 58" width="512" xmlns="http://www.w3.org/2000/svg"><path d="m19 49v2c0 3.866 3.134 7 7 7s7-3.134 7-7v-2z" fill="#f7e6a1"/><path d="m1 42h49v4h-49z" fill="#ebba16"/><path d="m0 43h52v8h-52z" fill="#c1961e"/><path d="m45.361 34.55c-2.825-3.596-4.361-8.036-4.361-12.608v-3.115l-7.597-16.829c-1.671-.977-3.547-1.644-5.574-1.888-9.057-1.088-16.829 6.038-16.829 14.89v6.942c0 4.572-1.536 9.012-4.361 12.608l-6.639 8.45h13.283 25.433 13.284z" fill="#ebba16"/><circle cx="39.217" cy="9.5" fill="#dd352e" r="9.5"/></svg>
